<svg width="275" height="133" viewBox="0 0 275 133" fill="none" xmlns="http://www.w3.org/2000/svg">
<path d="M16.4793 131.512C1.22793 117.427 -6.11676 93.3339 10.3435 77.1409C14.4168 73.1375 19.3467 70.1547 24.6198 68.0284C24.8294 67.9525 25.0359 67.8674 25.2455 67.7915" stroke="#CCDDE2" stroke-miterlimit="10"/>
<path d="M113.983 12.0166C129.31 13.3227 135.161 20.2634 142.496 29.3881C143.104 30.1444 143.69 30.9068 144.267 31.6693C150.828 40.3231 155.74 53.9554 169.004 52.2605C179.368 50.9331 188.241 44.3842 197.527 40.1439C212.833 33.1576 231.243 26.2564 247.697 33.6588C265.333 41.5897 274.023 63.2137 274.363 81.4539C274.694 99.7913 266.912 123.238 249.067 131.512" stroke="#CCDDE2" stroke-miterlimit="10"/>
<path d="M124.508 47.8475C124.301 56.0184 121.551 63.9214 116.641 70.4557C116.63 70.466 116.62 70.4781 116.614 70.4921C116.149 70.9933 115.675 71.4945 115.192 71.9775C111.337 75.8479 106.754 78.9179 101.708 81.011C96.662 83.1038 91.2519 84.1785 85.7889 84.173H85.6765C79.3707 84.173 73.0679 84.1943 66.7711 84.1943C61.8018 84.1943 56.7747 84.498 51.8539 83.7782C50.2714 83.5503 48.7769 83.0492 47.1579 83.1221C40.9857 83.4076 36.7454 89.2487 33.8203 93.972C33.7817 94.0334 33.7298 94.0853 33.6684 94.1239C33.6465 94.0698 33.6362 94.0118 33.638 93.9538C34.0268 86.8339 32.4838 79.471 28.9329 73.2684C28.8691 73.1469 28.8023 73.0315 28.7355 72.9191C26.7581 69.5778 24.1246 66.7074 22.4296 63.1991C19.4963 57.1001 18.1799 50.3495 18.6063 43.5953C19.0328 36.8411 21.1882 30.3099 24.8654 24.6283C28.5429 18.9469 33.6186 14.3059 39.6058 11.1506C45.593 7.9955 52.2904 6.43209 59.0558 6.61039L86.12 7.3394C96.5818 7.62158 106.503 12.0475 113.702 19.644C120.901 27.2405 124.788 37.3855 124.508 47.8475Z" fill="#E2E2E2"/>
<path d="M127.367 42.5865C127.381 52.8866 123.558 62.8229 116.641 70.4556C116.63 70.4659 116.621 70.4783 116.614 70.492C116.149 70.9932 115.675 71.4944 115.192 71.9773C111.337 75.8477 106.754 78.9177 101.708 81.0109C96.6623 83.1037 91.2522 84.1784 85.7892 84.1729H85.6769C79.371 84.1729 73.0682 84.1942 66.7714 84.1942C61.8021 84.1942 56.775 84.4979 51.8543 83.778C50.2717 83.5502 48.7773 83.049 47.1583 83.1219C40.9861 83.4075 36.7457 89.2486 33.8206 93.9719C33.782 94.0333 33.7301 94.0852 33.6687 94.1238C33.5992 94.1672 33.519 94.1909 33.437 94.1927C33.3549 94.1943 33.2742 94.1733 33.2031 94.1326C33.132 94.0916 33.0734 94.0324 33.0333 93.9607C32.9932 93.889 32.9734 93.8079 32.9762 93.7259C33.1858 86.2081 31.3481 78.5049 27.4297 72.0654C27.3629 71.9439 27.2869 71.8194 27.211 71.707C25.0331 68.2503 22.1839 65.2979 20.3007 61.6529C17.0302 55.3136 15.4455 48.2395 15.6985 41.1111C15.9516 33.9824 18.0341 27.0387 21.7456 20.9473C25.4574 14.8559 30.6734 9.82151 36.8924 6.32839C43.1117 2.83495 50.1247 1 57.258 1H85.7892C91.2498 1.0003 96.6571 2.07618 101.702 4.16659C106.746 6.2567 111.33 9.32003 115.191 13.1816C119.052 17.0435 122.114 21.6277 124.204 26.673C126.293 31.7183 127.367 37.1256 127.367 42.5865Z" stroke="black" stroke-miterlimit="10"/>
<path d="M102.368 20.4551H78.7481C74.7589 20.4551 71.5249 23.6891 71.5249 27.6783V59.5842C71.5249 63.5737 74.7589 66.8077 78.7481 66.8077H102.368C106.357 66.8077 109.591 63.5737 109.591 59.5842V27.6783C109.591 23.6891 106.357 20.4551 102.368 20.4551Z" fill="#D7E8F0"/>
<path d="M90.7704 33.3158C92.3876 33.3158 93.6986 32.0048 93.6986 30.3876C93.6986 28.7705 92.3876 27.4595 90.7704 27.4595C89.1533 27.4595 87.8423 28.7705 87.8423 30.3876C87.8423 32.0048 89.1533 33.3158 90.7704 33.3158Z" fill="white"/>
<path d="M82.5906 43.6321C82.5906 41.4625 83.4523 39.3821 84.9866 37.8478C86.5205 36.3139 88.6012 35.4521 90.7706 35.4521C92.94 35.4521 95.0207 36.3139 96.5546 37.8478C98.0888 39.3821 98.9506 41.4625 98.9506 43.6321H82.5906Z" fill="white"/>
<path d="M97.7841 50.6147H83.3286C81.2737 50.6147 79.6077 52.2805 79.6077 54.3357V56.1612C79.6077 58.2161 81.2737 59.8822 83.3286 59.8822H97.7841C99.8393 59.8822 101.505 58.2161 101.505 56.1612V54.3357C101.505 52.2805 99.8393 50.6147 97.7841 50.6147Z" fill="#E2E2E2"/>
<path d="M59.6542 35.2383H36.6633" stroke="white" stroke-linecap="round" stroke-linejoin="round"/>
<path d="M59.6542 40.6157H36.6633" stroke="white" stroke-linecap="round" stroke-linejoin="round"/>
<path d="M59.6542 45.4141H36.6633" stroke="white" stroke-linecap="round" stroke-linejoin="round"/>
<path d="M59.6542 50.7915H36.6633" stroke="white" stroke-linecap="round" stroke-linejoin="round"/>
<path d="M59.6542 30.4399H36.6633" stroke="white" stroke-linecap="round" stroke-linejoin="round"/>
<path d="M59.6542 55.5933H36.6633" stroke="white" stroke-linecap="round" stroke-linejoin="round"/>
<path d="M66.0786 90.4847C66.0786 90.4847 55.4322 89.455 56.5834 78.6384C57.7346 67.8219 59.8275 68.3109 69.3895 63.8123C69.3895 63.8123 77.1989 63.7759 79.3768 66.1178C81.5547 68.4597 82.8183 63.8215 82.8183 63.8215C82.8183 63.8215 92.9939 51.0214 105.697 53.7127C118.4 56.4039 95.7824 66.5917 95.7824 66.5917C95.7824 66.5917 81.1872 66.7921 84.9628 72.208C84.9628 72.208 87.1589 76.2813 85.8953 79.6742C84.6317 83.0671 84.6469 88.5103 83.8116 88.6682C82.9763 88.8262 70.5134 91.5417 70.5134 91.5417L66.0786 90.4847Z" fill="white"/>
<path d="M165.557 131.516H135.984C131.086 131.523 126.235 130.565 121.707 128.696C117.18 126.827 113.066 124.084 109.6 120.623C109.597 121.345 109.521 122.065 109.372 122.771V103.07C99.6521 91.7186 88.3282 97.4929 86.8065 98.3464C86.1321 91.8978 85.5368 86.8039 85.5368 86.8039C85.5368 86.8039 83.8996 72.9711 96.7178 67.9076C96.8211 67.862 96.9244 67.8225 97.0216 67.7861C103.021 65.5232 108.455 66.641 112.99 68.8644C113.066 68.91 113.142 68.9404 113.218 68.9859C118.008 71.3916 121.765 75.0093 124.086 77.1203C124.332 77.336 124.56 77.5456 124.775 77.7278C127.163 79.8116 133.39 85.9656 140.385 90.9258L140.5 91.0109C145.64 94.6346 151.186 97.6174 155.922 97.8726C155.931 97.8908 167.923 109.953 165.557 131.516Z" fill="#40A0FF"/>
<path d="M163.133 96.1104C160.378 97.2009 158.012 97.8145 155.712 97.8904C154.509 97.9299 153.306 97.8114 152.134 97.5381C148.687 96.7817 145.072 94.698 140.288 91.0165L140.176 90.9315C136.048 87.7694 131.063 83.4228 124.563 77.7335C124.347 77.5452 124.119 77.3356 123.873 77.126C123.238 76.5762 122.585 76.0082 121.923 75.422C119.184 72.968 116.192 70.8105 112.999 68.9855C112.923 68.94 112.847 68.9096 112.771 68.864C112.467 68.6848 112.148 68.5238 111.836 68.3628C111.132 68.0002 110.405 67.6864 109.658 67.4242C107.828 66.77 105.902 66.4222 103.959 66.3945L102.766 66.4249C87.3746 66.8775 83.9847 70.4557 83.9847 70.4557C85.5506 72.5917 86.5116 75.11 86.7671 77.7457C85.4974 77.5391 84.2308 77.934 84.0121 79.3373C83.7478 81.0596 83.3499 82.6391 81.7491 83.6536C80.7732 84.2241 79.6196 84.409 78.5142 84.173C78.5142 84.173 78.4929 84.173 78.4838 84.173C78.1619 84.0789 77.849 84.0029 77.5726 83.9452C77.4496 83.9164 77.329 83.8787 77.2111 83.8328C73.9853 82.6573 72.102 83.1129 72.7156 86.5666C73.4355 90.6277 68.1351 91.1593 64.6419 90.5336C58.4788 87.7603 56.793 76.9407 61.6773 70.2765C61.8019 70.1064 61.9416 69.9271 62.0843 69.7449C62.2271 69.5626 62.3881 69.3956 62.5309 69.2255C62.8954 68.8297 63.2839 68.4564 63.6942 68.1077C63.837 67.9862 63.9797 67.8616 64.1286 67.7493C64.2774 67.6369 64.49 67.4729 64.6693 67.3422C64.8436 67.2034 65.0274 67.0768 65.219 66.9626C66.8718 65.8754 68.7289 65.1358 70.6765 64.7889C72.6245 64.4423 74.6223 64.4955 76.5489 64.9456C78.1026 65.4979 79.5618 66.2867 80.8743 67.2845C80.8743 67.2845 80.9958 67.0962 81.2419 66.756C81.8132 67.0941 82.363 67.4674 82.8882 67.8738C82.8882 67.8738 92.1374 53.7676 105.551 53.9286C106.632 53.938 107.709 54.0653 108.762 54.3083C119.223 58.008 126.321 71.3365 132.721 73.3808C133.207 73.5354 133.699 73.6651 134.198 73.7696C139.149 74.8297 144.686 73.6754 149.601 73.3626C152.839 73.156 156.162 73.232 159.294 74.1007C159.682 74.207 160.08 74.3376 160.469 74.4804H160.487C164.861 76.0508 169.168 79.5348 170.238 84.1639C171.438 89.2943 167.534 94.0935 163.133 96.1104Z" fill="#E2E2E2"/>
<path d="M254.941 54.4057C254.809 54.9452 254.556 55.4479 254.201 55.8756C253.847 56.3033 253.4 56.645 252.894 56.8752L244.374 60.9363L225.396 67.8953L227.218 61.5621C227.784 60.7325 228.591 60.0965 229.53 59.7396L246.014 53.4246L250.063 51.8451C250.867 51.5523 251.748 51.5456 252.557 51.8269C253.365 52.1078 254.052 52.6595 254.501 53.3882C254.699 53.7028 254.848 54.0461 254.941 54.4057Z" fill="#E2E2E2"/>
<path d="M246.023 51.6172L250.078 50.0225C250.98 49.6923 251.973 49.7239 252.852 50.1109C253.73 50.4976 254.424 51.2096 254.789 52.0974C255.153 52.985 255.16 53.9795 254.807 54.8719C254.455 55.7646 253.77 56.4857 252.897 56.8842L244.377 60.9423L231.711 122.3C230.999 124.944 229.435 127.28 227.262 128.946C225.088 130.612 222.426 131.515 219.688 131.516H135.756C130.858 131.523 126.007 130.565 121.48 128.696C116.953 126.827 112.838 124.084 109.372 120.623" stroke="black" stroke-miterlimit="10"/>
<path d="M216.76 90.3276L216.496 91.0566C211.687 103.902 211.138 111.408 211.138 111.408" stroke="black" stroke-miterlimit="10"/>
<path d="M89.0483 123.108L85.3091 84.9601C85.3064 81.3384 86.3634 77.7949 88.3502 74.7668C90.3371 71.739 93.1668 69.3585 96.4901 67.9197C98.9189 66.8417 101.559 66.3232 104.215 66.4018C106.871 66.4808 109.475 67.1551 111.836 68.3753C112.139 68.5363 112.458 68.6973 112.771 68.8765C112.847 68.9251 112.923 68.9524 112.999 68.998C116.19 70.8211 119.179 72.9765 121.917 75.4284C122.579 76.0146 123.232 76.5826 123.867 77.1324C124.113 77.3481 124.341 77.5577 124.557 77.7399C131.051 83.4291 136.041 87.7637 140.169 90.9379L140.282 91.0229C146.737 95.9832 151.056 98.0365 155.703 97.8846C158.637 97.7905 161.696 96.8063 165.499 95.1205C179.699 88.8147 203.565 92.9335 211.763 108.713" stroke="black" stroke-miterlimit="10"/>
<path d="M98.4585 131.497C98.659 131.497 98.8473 131.515 99.0356 131.515C101.775 131.515 104.402 130.427 106.338 128.491C108.275 126.554 109.363 123.927 109.363 121.188V91.7666" stroke="black" stroke-miterlimit="10"/>
<path d="M86.7579 77.7456C85.6492 66.5463 72.5029 60.204 63.2051 66.3489C63.0533 66.4339 62.9014 66.5372 62.7617 66.6526L62.6462 66.7376C62.467 66.8713 62.2878 67.005 62.1086 67.1447C61.5372 67.5954 61.002 68.09 60.5078 68.6239C60.356 68.794 60.2041 68.9733 60.0613 69.1434C59.9186 69.3135 59.7788 69.5048 59.6543 69.6749" stroke="black" stroke-miterlimit="10"/>
<path d="M64.6633 90.5068C66.3798 92.2185 68.4025 93.5929 70.626 94.5589C79.5441 98.1553 83.8725 91.3604 83.8725 91.3604" stroke="black" stroke-miterlimit="10"/>
<path d="M160.664 97.0306C160.937 96.9334 161.213 96.8392 161.478 96.7542L161.563 96.7269C161.634 96.7056 161.704 96.6801 161.772 96.6509C162.006 96.575 162.234 96.4899 162.471 96.3958L162.917 96.2166C167.404 94.2513 171.459 89.3822 170.25 84.1607C169.078 79.1184 164.069 75.4309 159.315 74.1005C156.183 73.2318 152.86 73.1558 149.622 73.3624C144.206 73.7026 138.043 75.0755 132.734 73.3806C125.322 71.0144 116.963 53.5032 103.549 53.3331C90.1359 53.163 80.8745 67.2813 80.8745 67.2813" stroke="black" stroke-miterlimit="10"/>
<path d="M83.9817 70.4616C83.9817 70.4616 86.758 66.7012 103.17 66.3975" stroke="black" stroke-miterlimit="10"/>
<path d="M216.496 91.0563L224.636 68.1748L225.271 66.3857L227.306 60.66C227.461 60.2245 227.682 59.8147 227.959 59.445C228.526 58.6164 229.333 57.9807 230.271 57.6225L246.023 51.6113" stroke="black" stroke-miterlimit="10"/>
<path d="M208.753 53.3337L204.455 60.4809L193.238 75.5712L191.743 68.7065C191.766 67.7096 192.09 66.7427 192.673 65.9332L202.499 52.225L203.559 50.9006C204.067 50.2099 204.798 49.7163 205.629 49.5037C206.46 49.291 207.338 49.3724 208.115 49.7342C208.53 49.9253 208.904 50.1956 209.215 50.5301C209.326 51.0048 209.342 51.4969 209.263 51.9777C209.184 52.4589 209.011 52.9196 208.753 53.3337Z" fill="#E2E2E2"/>
<path d="M218.088 86.6023L204.461 60.4797L208.753 53.3295C209.131 52.7244 209.326 52.0233 209.315 51.3101C209.305 50.5972 209.09 49.9019 208.696 49.3078C208.322 48.7392 207.795 48.2866 207.177 48.0017C206.401 47.6411 205.524 47.5591 204.694 47.7693C203.864 47.9795 203.132 48.4692 202.621 49.1559L201.558 50.4924" stroke="black" stroke-miterlimit="10"/>
<path d="M201.548 50.4932L191.722 64.1893C191.145 65.0051 190.828 65.9756 190.811 66.9747C190.788 67.4394 190.831 67.9048 190.941 68.3567L192.399 74.2525L192.855 76.0993L197.788 96.0557" stroke="black" stroke-miterlimit="10"/>
<path d="M63.2021 66.3433C54.2597 71.8897 55.2833 86.6945 62.6766 89.9507C65.5015 91.1961 73.6116 91.4999 72.7003 86.5366C72.0928 83.0951 73.973 82.6395 77.2019 83.8028C82.7879 85.8258 83.9695 80.419 83.9695 80.0454" stroke="black" stroke-miterlimit="10"/>
<path d="M82.2139 93.1611L85.868 94.2485" stroke="black" stroke-miterlimit="10"/>
<path d="M53.3911 110.107L49.8919 117.327C49.6474 117.831 49.2188 118.221 48.6948 118.418C48.1708 118.614 47.5916 118.602 47.0761 118.384C46.7918 118.264 46.536 118.085 46.3261 117.858C46.1163 117.632 45.9568 117.364 45.8584 117.071C45.76 116.779 45.7247 116.468 45.7548 116.161C45.7852 115.854 45.8805 115.557 46.0342 115.289L46.7146 114.101C46.7362 114.04 46.7614 113.98 46.7906 113.922L47.2614 112.971L51.2648 104.904C51.7496 103.915 52.4747 103.063 53.3735 102.426C54.2723 101.789 55.3166 101.388 56.4104 101.259H56.5015" stroke="black" stroke-miterlimit="10"/>
<path d="M61.1305 109.541L55.9667 111.036C55.6754 111.12 55.3702 111.147 55.0685 111.113C54.7669 111.08 54.475 110.987 54.2092 110.841C53.9435 110.694 53.7093 110.497 53.5197 110.26C53.3305 110.023 53.1895 109.751 53.1054 109.459C53.021 109.168 52.9945 108.863 53.0279 108.561C53.0614 108.259 53.154 107.968 53.3004 107.702C53.4468 107.436 53.6443 107.202 53.8812 107.012C54.1184 106.823 54.3903 106.682 54.6819 106.598L62.0083 104.472" stroke="black" stroke-miterlimit="10"/>
<path d="M57.1484 110.687C57.3428 111.471 57.2216 112.3 56.8112 112.996C55.8453 114.578 53.4001 115.122 51.4895 114.8" stroke="black" stroke-miterlimit="10"/>
<path d="M47.2552 112.972C45.2566 111.608 44.8495 109.09 45.4661 106.875C47.9751 97.7112 58.4454 99.889 65.3922 101.499C69.5323 102.482 73.5937 103.773 77.5422 105.36C80.8105 106.666 84.009 108.418 87.5295 108.901" stroke="black" stroke-miterlimit="10"/>
<path d="M56.8142 112.998C56.8142 112.998 57.5341 113.253 58.7643 113.736C64.0863 115.827 69.1495 118.524 73.8546 121.773C76.1661 123.365 79.1459 124.443 82.4993 125.163" stroke="black" stroke-miterlimit="10"/>
<path d="M88.383 118.296C87.2913 118.111 86.1686 118.295 85.1936 118.82C84.2183 119.345 83.4464 120.181 83.0005 121.194C81.0778 125.143 83.7629 129.818 88.1066 130.486C91.7245 131.074 95.3777 131.418 99.0416 131.516" stroke="black" stroke-miterlimit="10"/>
<path d="M86.8159 98.4854L86.6458 98.449C86.6458 98.449 86.7004 98.4125 86.8159 98.3457C86.8067 98.3913 86.8159 98.449 86.8159 98.4854Z" fill="#2E2E2E"/>
<path d="M73.4089 126.867L30.3812 118.69C29.2935 118.484 28.2443 119.198 28.0375 120.286L27.8537 121.252C27.6471 122.34 28.3612 123.39 29.449 123.596L72.4767 131.773C73.5645 131.98 74.6139 131.266 74.8205 130.178L75.0042 129.211C75.2111 128.123 74.4967 127.074 73.4089 126.867Z" stroke="black" stroke-miterlimit="10"/>
<path d="M34.7134 124.599V131.516" stroke="black" stroke-miterlimit="10"/>
<path d="M2.66772 131.515H260.801" stroke="black" stroke-miterlimit="10"/>
</svg>
