<svg width="27" height="27" fill="none" xmlns="http://www.w3.org/2000/svg">
<path fill-rule="evenodd" clip-rule="evenodd" d="M7.12011 1.20268C8.01642 0.336637 9.36 0 11.0443 0H15.9556C17.6399 0 18.9835 0.336637 19.8798 1.20268C20.7649 2.05789 21.0363 3.26134 21.0363 4.60225V7.14445C21.0363 7.58018 20.6463 7.93341 20.1653 7.93341H6.83464C6.35362 7.93341 5.96368 7.58018 5.96368 7.14445V4.60225C5.96368 3.26134 6.23501 2.05789 7.12011 1.20268ZM8.39091 2.28188C7.96049 2.69777 7.70561 3.40097 7.70561 4.60225V6.35549H19.2943V4.60225C19.2943 3.40097 19.0394 2.69777 18.609 2.28188C18.1898 1.87683 17.4286 1.57792 15.9556 1.57792H11.0443C9.57138 1.57792 8.81013 1.87683 8.39091 2.28188Z" />
<path fill-rule="evenodd" clip-rule="evenodd" d="M7.0161 17.3134C7.0161 16.8776 7.40604 16.5244 7.88707 16.5244H19.1129C19.5939 16.5244 19.9838 16.8776 19.9838 17.3134V22.3978C19.9838 23.7905 19.5989 24.9799 18.6763 25.8156C17.7538 26.6513 16.4407 27 14.9032 27H12.0967C10.5593 27 9.24618 26.6513 8.32362 25.8156C7.40106 24.9799 7.0161 23.7905 7.0161 22.3978V17.3134ZM8.75803 18.1023V22.3978C8.75803 23.5473 9.07469 24.2645 9.55535 24.6999C10.036 25.1353 10.8278 25.4221 12.0967 25.4221H14.9032C16.1722 25.4221 16.9639 25.1353 17.4446 24.6999C17.9253 24.2645 18.2419 23.5473 18.2419 22.3978V18.1023H8.75803Z" />
<path fill-rule="evenodd" clip-rule="evenodd" d="M2.53925 8.65563C2.05859 9.09103 1.74194 9.80824 1.74194 10.9577V17.3132C1.74194 18.4627 2.05859 19.1799 2.53925 19.6153C3.01992 20.0507 3.81167 20.3376 5.08065 20.3376H7.01613V17.3132C7.01613 16.8775 7.40607 16.5243 7.8871 16.5243H19.1129C19.5939 16.5243 19.9839 16.8775 19.9839 17.3132V20.3376H21.9194C23.1883 20.3376 23.9801 20.0507 24.4607 19.6153C24.9414 19.1799 25.2581 18.4627 25.2581 17.3132V10.9577C25.2581 9.80824 24.9414 9.09103 24.4607 8.65563C23.9801 8.22022 23.1883 7.93338 21.9194 7.93338H5.08065C3.81167 7.93338 3.01992 8.22022 2.53925 8.65563ZM1.30752 7.53987C2.23008 6.70418 3.54316 6.35547 5.08065 6.35547H21.9194C23.4568 6.35547 24.7699 6.70418 25.6925 7.53987C26.615 8.37556 27 9.56501 27 10.9577V17.3132C27 18.7059 26.615 19.8954 25.6925 20.7311C24.7699 21.5668 23.4568 21.9155 21.9194 21.9155H19.1129C18.6319 21.9155 18.2419 21.5622 18.2419 21.1265V18.1022H8.75806V21.1265C8.75806 21.5622 8.36812 21.9155 7.8871 21.9155H5.08065C3.54316 21.9155 2.23008 21.5668 1.30752 20.7311C0.38496 19.8954 0 18.7059 0 17.3132V10.9577C0 9.56501 0.38496 8.37556 1.30752 7.53987Z" />
<path fill-rule="evenodd" clip-rule="evenodd" d="M5.61294 17.3134C5.61294 16.8776 6.00288 16.5244 6.48391 16.5244H20.5162C20.9972 16.5244 21.3871 16.8776 21.3871 17.3134C21.3871 17.7491 20.9972 18.1023 20.5162 18.1023H6.48391C6.00288 18.1023 5.61294 17.7491 5.61294 17.3134Z" />
<path fill-rule="evenodd" clip-rule="evenodd" d="M5.61294 12.2289C5.61294 11.7932 6.00288 11.4399 6.48391 11.4399H10.6936C11.1746 11.4399 11.5646 11.7932 11.5646 12.2289C11.5646 12.6646 11.1746 13.0179 10.6936 13.0179H6.48391C6.00288 13.0179 5.61294 12.6646 5.61294 12.2289Z" />
</svg>
