<svg width="40" height="40" fill="none" xmlns="http://www.w3.org/2000/svg">
<path d="M40 19.5363C40 8.77178 31.2282 0 20.4637 0C9.69927 0 0.92749 8.77178 0.92749 19.5363C0.92749 25.2018 3.36952 30.3007 7.2377 33.8759C7.2377 33.8954 7.2377 33.8954 7.21816 33.9149C7.41353 34.1103 7.64796 34.2666 7.84332 34.4424C7.96054 34.5401 8.05822 34.6378 8.17544 34.7159C8.52709 35.009 8.91782 35.2825 9.28901 35.556C9.42576 35.6537 9.54298 35.7318 9.67973 35.8295C10.0509 36.0835 10.4416 36.3179 10.8519 36.5328C10.9887 36.6109 11.145 36.7086 11.2817 36.7868C11.6724 37.0017 12.0827 37.197 12.5125 37.3729C12.6688 37.451 12.8251 37.5291 12.9814 37.5878C13.4112 37.7636 13.841 37.9199 14.2708 38.0566C14.427 38.1152 14.5833 38.1738 14.7396 38.2129C15.2085 38.3497 15.6774 38.4669 16.1462 38.5841C16.283 38.6232 16.4197 38.6622 16.576 38.6818C17.123 38.799 17.6701 38.8771 18.2366 38.9358C18.3148 38.9358 18.3929 38.9553 18.471 38.9748C19.1353 39.0334 19.7995 39.0725 20.4637 39.0725C21.128 39.0725 21.7922 39.0334 22.4369 38.9748C22.5151 38.9748 22.5932 38.9553 22.6713 38.9358C23.2379 38.8771 23.7849 38.799 24.3319 38.6818C24.4687 38.6622 24.6054 38.6036 24.7617 38.5841C25.2306 38.4669 25.719 38.3692 26.1683 38.2129C26.3246 38.1543 26.4809 38.0957 26.6372 38.0566C27.067 37.9003 27.5163 37.7636 27.9266 37.5878C28.0829 37.5291 28.2392 37.451 28.3955 37.3729C28.8057 37.197 29.216 37.0017 29.6262 36.7868C29.7825 36.7086 29.9193 36.6109 30.056 36.5328C30.4468 36.2984 30.8375 36.0835 31.2282 35.8295C31.365 35.7513 31.4822 35.6537 31.6189 35.556C32.0097 35.2825 32.3809 35.009 32.7325 34.7159C32.8497 34.6182 32.9474 34.5206 33.0646 34.4424C33.2795 34.2666 33.4944 34.0908 33.6898 33.9149C33.6898 33.8954 33.6898 33.8954 33.6703 33.8759C37.558 30.3007 40 25.2018 40 19.5363ZM30.1147 29.2458C24.8203 25.6902 16.1462 25.6902 10.8128 29.2458C9.95324 29.8123 9.24994 30.4766 8.66385 31.1994C5.69434 28.1908 3.85793 24.0687 3.85793 19.5363C3.85793 10.3738 11.3012 2.93044 20.4637 2.93044C29.6262 2.93044 37.0696 10.3738 37.0696 19.5363C37.0696 24.0687 35.2332 28.1908 32.2636 31.1994C31.6971 30.4766 30.9743 29.8123 30.1147 29.2458Z" />
<path d="M20.4637 9.63086C16.4197 9.63086 13.1376 12.913 13.1376 16.957C13.1376 20.9228 16.2438 24.1463 20.366 24.2635H20.5418H20.6786H20.7176C24.664 24.1268 27.7702 20.9228 27.7898 16.957C27.7898 12.913 24.5077 9.63086 20.4637 9.63086Z" />
</svg>
