<svg width="27" height="29" viewBox="0 0 27 29" fill="none" xmlns="http://www.w3.org/2000/svg">
<g id="Group">
<path id="Vector" d="M19.0385 29H7.96154C2.90769 29 0 26.1674 0 21.2442V7.75581C0 2.83256 2.90769 0 7.96154 0H19.0385C24.0923 0 27 2.83256 27 7.75581V21.2442C27 26.1674 24.0923 29 19.0385 29ZM7.96154 2.02326C4.00154 2.02326 2.07692 3.89814 2.07692 7.75581V21.2442C2.07692 25.1019 4.00154 26.9767 7.96154 26.9767H19.0385C22.9985 26.9767 24.9231 25.1019 24.9231 21.2442V7.75581C24.9231 3.89814 22.9985 2.02326 19.0385 2.02326H7.96154Z" fill="black"/>
<path id="Vector_2" d="M9.346 13.2995C9.11062 13.2995 8.87523 13.2591 8.6537 13.1647C8.01677 12.8949 7.61523 12.2879 7.61523 11.627V1.01163C7.61523 0.458605 8.086 0 8.6537 0H18.346C18.9137 0 19.3845 0.458605 19.3845 1.01163V11.6135C19.3845 12.2879 18.9829 12.8949 18.346 13.1512C17.7229 13.4209 16.9891 13.2995 16.4768 12.8409L13.4998 10.1837L10.5229 12.8544C10.1906 13.1512 9.77523 13.2995 9.346 13.2995ZM13.4998 8.0391C13.9152 8.0391 14.3445 8.18742 14.6768 8.48416L17.3075 10.8446V2.02326H9.69216V10.8446L12.3229 8.48416C12.6552 8.18742 13.0845 8.0391 13.4998 8.0391Z" fill="black"/>
<path id="Vector_3" d="M21.1155 18.2093H15.2308C14.6632 18.2093 14.1924 17.7507 14.1924 17.1977C14.1924 16.6446 14.6632 16.186 15.2308 16.186H21.1155C21.6832 16.186 22.1539 16.6446 22.1539 17.1977C22.1539 17.7507 21.6832 18.2093 21.1155 18.2093Z" fill="black"/>
<path id="Vector_4" d="M21.1153 23.6048H9.34608C8.77839 23.6048 8.30762 23.1462 8.30762 22.5932C8.30762 22.0401 8.77839 21.5815 9.34608 21.5815H21.1153C21.683 21.5815 22.1538 22.0401 22.1538 22.5932C22.1538 23.1462 21.683 23.6048 21.1153 23.6048Z" fill="black"/>
</g>
</svg>
