<svg width="28" height="28" viewBox="0 0 28 28" fill="none" xmlns="http://www.w3.org/2000/svg">
<g id="Group">
<path id="Vector" d="M1.05238 23.3587C0.478433 23.3587 0.00247967 22.8802 0.00247967 22.3033V14.2826C-0.0675135 10.4692 1.34635 6.86688 3.97809 4.16515C6.60984 1.4775 10.1375 0 13.9311 0C21.6863 0 27.9997 6.34623 27.9997 14.1419V22.1626C27.9997 22.7395 27.5238 23.218 26.9498 23.218C26.3759 23.218 25.8999 22.7395 25.8999 22.1626V14.1419C25.8999 7.51416 20.5385 2.11072 13.9311 2.11072C10.6974 2.11072 7.70173 3.36308 5.47595 5.64266C3.23616 7.93631 2.04628 10.9898 2.10228 14.2544V22.2892C2.10228 22.8802 1.64032 23.3587 1.05238 23.3587Z" fill="black"/>
<path id="Vector_2" d="M5.51839 14.6323H5.33641C2.3967 14.6323 0.00292969 17.0385 0.00292969 19.9936V22.639C0.00292969 25.594 2.3967 28.0002 5.33641 28.0002H5.51839C8.45811 28.0002 10.8519 25.594 10.8519 22.639V19.9936C10.8519 17.0385 8.45811 14.6323 5.51839 14.6323Z" fill="black"/>
<path id="Vector_3" d="M22.6668 14.6323H22.4848C19.5451 14.6323 17.1514 17.0385 17.1514 19.9936V22.639C17.1514 25.594 19.5451 28.0002 22.4848 28.0002H22.6668C25.6065 28.0002 28.0003 25.594 28.0003 22.639V19.9936C28.0003 17.0385 25.6065 14.6323 22.6668 14.6323Z" fill="black"/>
</g>
</svg>
