<svg width="29" height="34" fill="none" xmlns="http://www.w3.org/2000/svg">
<path fill-rule="evenodd" clip-rule="evenodd" d="M6.12109 9.5C6.12109 4.74775 9.86151 0.875 14.4999 0.875C19.1383 0.875 22.8788 4.74775 22.8788 9.5C22.8788 14.2523 19.1383 18.125 14.4999 18.125C9.86151 18.125 6.12109 14.2523 6.12109 9.5ZM14.4999 3.125C11.1016 3.125 8.32698 5.96799 8.32698 9.5C8.32698 13.032 11.1016 15.875 14.4999 15.875C17.8982 15.875 20.6729 13.032 20.6729 9.5C20.6729 5.96799 17.8982 3.125 14.4999 3.125Z" />
<path fill-rule="evenodd" clip-rule="evenodd" d="M0.897461 32C0.897461 25.3785 7.20452 20.375 14.5004 20.375C21.7963 20.375 28.1033 25.3785 28.1033 32C28.1033 32.6213 27.6095 33.125 27.0004 33.125C26.3913 33.125 25.8975 32.6213 25.8975 32C25.8975 27.0115 20.9996 22.625 14.5004 22.625C8.00118 22.625 3.10334 27.0115 3.10334 32C3.10334 32.6213 2.60954 33.125 2.0004 33.125C1.39126 33.125 0.897461 32.6213 0.897461 32Z" />
</svg>
