<svg width="31" height="31" fill="none" xmlns="http://www.w3.org/2000/svg">
<path d="M23.6355 30.6898H7.0878C3.17236 30.6898 0 27.5032 0 23.5878V12.9989C0 11.0554 1.20035 8.61187 2.74367 7.41152L10.4459 1.40975C12.7609 -0.390776 16.462 -0.476515 18.8627 1.20969L27.6939 7.39723C29.3944 8.58329 30.7233 11.1269 30.7233 13.199V23.602C30.7233 27.5032 27.551 30.6898 23.6355 30.6898ZM11.7606 3.09596L4.05834 9.09773C3.04375 9.89796 2.14349 11.7128 2.14349 12.9989V23.5878C2.14349 26.3171 4.35843 28.5464 7.0878 28.5464H23.6355C26.3649 28.5464 28.5798 26.3314 28.5798 23.602V13.199C28.5798 11.8271 27.5938 9.92654 26.4649 9.15489L17.6338 2.96735C16.0047 1.82416 13.3182 1.88132 11.7606 3.09596Z" />
<path d="M15.3618 24.9748C14.7759 24.9748 14.2899 24.4888 14.2899 23.9029V19.6153C14.2899 19.0294 14.7759 18.5435 15.3618 18.5435C15.9478 18.5435 16.4337 19.0294 16.4337 19.6153V23.9029C16.4337 24.4888 15.9478 24.9748 15.3618 24.9748Z" />
</svg>
