<svg width="27" height="27" fill="none" xmlns="http://www.w3.org/2000/svg">
<path d="M9.73262 20.7209C9.60704 20.7209 9.49401 20.6957 9.36843 20.6455C9.0168 20.5074 8.79076 20.1557 8.79076 19.779V12.2441C8.79076 11.7292 9.21773 11.3022 9.73262 11.3022C10.2475 11.3022 10.6745 11.7292 10.6745 12.2441V17.506L11.5787 16.6018C11.9428 16.2376 12.5456 16.2376 12.9098 16.6018C13.274 16.966 13.274 17.5688 12.9098 17.9329L10.3982 20.4446C10.2224 20.6204 9.97122 20.7209 9.73262 20.7209Z" />
<path d="M9.7316 20.7208C9.49299 20.7208 9.25439 20.6329 9.06602 20.4445L6.55439 17.9329C6.1902 17.5687 6.1902 16.9659 6.55439 16.6018C6.91858 16.2376 7.52137 16.2376 7.88555 16.6018L10.3972 19.1134C10.7614 19.4776 10.7614 20.0804 10.3972 20.4445C10.2088 20.6329 9.9702 20.7208 9.7316 20.7208Z" />
<path d="M17.2674 27H9.73256C2.91349 27 0 24.0865 0 17.2674V9.73256C0 2.91349 2.91349 0 9.73256 0H16.0116C16.5265 0 16.9535 0.426977 16.9535 0.94186C16.9535 1.45674 16.5265 1.88372 16.0116 1.88372H9.73256C3.94326 1.88372 1.88372 3.94326 1.88372 9.73256V17.2674C1.88372 23.0567 3.94326 25.1163 9.73256 25.1163H17.2674C23.0567 25.1163 25.1163 23.0567 25.1163 17.2674V10.9884C25.1163 10.4735 25.5433 10.0465 26.0581 10.0465C26.573 10.0465 27 10.4735 27 10.9884V17.2674C27 24.0865 24.0865 27 17.2674 27Z" />
<path d="M26.0581 11.9303H21.0348C16.7399 11.9303 15.0697 10.2601 15.0697 5.96522V0.94196C15.0697 0.565216 15.2957 0.213588 15.6474 0.0754482C15.999 -0.0752495 16.4008 0.0126575 16.6771 0.276378L26.7236 10.3229C26.9874 10.5866 27.0753 11.001 26.9246 11.3527C26.7739 11.7043 26.4348 11.9303 26.0581 11.9303ZM16.9534 3.21498V5.96522C16.9534 9.20522 17.7948 10.0466 21.0348 10.0466H23.785L16.9534 3.21498Z" />
</svg>
