<svg width="114" height="74" viewBox="0 0 114 74" fill="none" xmlns="http://www.w3.org/2000/svg">
<path d="M24.6309 58.3967C23.1961 58.3967 22.0062 57.2006 22.0062 55.7583V35.7064C21.8312 26.1729 25.3659 17.1672 31.9452 10.4129C38.5246 3.69376 47.3437 0 56.8277 0C76.2158 0 91.9993 15.8656 91.9993 35.3546V55.4065C91.9993 56.8488 90.8094 58.0449 89.3746 58.0449C87.9397 58.0449 86.7498 56.8488 86.7498 55.4065V35.3546C86.7498 18.7854 73.3461 5.2768 56.8277 5.2768C48.7436 5.2768 41.2543 8.4077 35.6899 14.1066C30.0904 19.8408 27.1157 27.4745 27.2557 35.6361V55.7231C27.2557 57.2006 26.1008 58.3967 24.6309 58.3967Z" fill="#40A0FF"/>
<path d="M35.7955 36.5806H35.3405C27.9913 36.5806 22.0068 42.5961 22.0068 49.9836V56.5972C22.0068 63.9848 27.9913 70.0003 35.3405 70.0003H35.7955C43.1448 70.0003 49.1292 63.9848 49.1292 56.5972V49.9836C49.1292 42.5961 43.1448 36.5806 35.7955 36.5806Z" fill="#40A0FF"/>
<path d="M78.6666 36.5806H78.2116C70.8623 36.5806 64.8779 42.5961 64.8779 49.9836V56.5972C64.8779 63.9848 70.8623 70.0003 78.2116 70.0003H78.6666C86.0159 70.0003 92.0003 63.9848 92.0003 56.5972V49.9836C92.0003 42.5961 86.0159 36.5806 78.6666 36.5806Z" fill="#40A0FF"/>
<path d="M101.006 41.5342C105.901 48.033 105.901 56.9724 101.006 63.4713" stroke="#40A0FF" stroke-width="4" stroke-linecap="round" stroke-linejoin="round"/>
<path d="M106.039 34.6782C113.988 45.2354 113.988 59.7688 106.039 70.326" stroke="#40A0FF" stroke-width="4" stroke-linecap="round" stroke-linejoin="round"/>
<path d="M12.9941 63.4658C8.09853 56.967 8.09853 48.0276 12.9941 41.5287" stroke="#40A0FF" stroke-width="4" stroke-linecap="round" stroke-linejoin="round"/>
<path d="M7.96094 70.3218C0.0124418 59.7646 0.0124431 45.2312 7.96094 34.674" stroke="#40A0FF" stroke-width="4" stroke-linecap="round" stroke-linejoin="round"/>
</svg>
