<svg width="19" height="22" fill="none" xmlns="http://www.w3.org/2000/svg">
<path d="M9.52798 19.681C7.00329 19.681 4.47862 19.3046 2.08399 18.552C1.17381 18.257 0.480343 17.6569 0.17695 16.8738C-0.137278 16.0906 -0.0289235 15.226 0.469507 14.453L1.71558 12.5103C1.97563 12.1035 2.21402 11.2898 2.21402 10.8118V7.87234C2.21402 4.08868 5.49716 1.00684 9.52798 1.00684C13.5588 1.00684 16.8419 4.08868 16.8419 7.87234V10.8118C16.8419 11.2796 17.0803 12.1035 17.3403 12.5205L18.5756 14.453C19.0415 15.1853 19.1282 16.0702 18.814 16.8738C18.4997 17.6773 17.8171 18.2875 16.9611 18.552C14.5773 19.3046 12.0526 19.681 9.52798 19.681ZM9.52798 2.5325C6.3965 2.5325 3.83933 4.92271 3.83933 7.87234V10.8118C3.83933 11.5543 3.51427 12.6527 3.11336 13.2935L1.86728 15.2362C1.6289 15.6125 1.56389 16.0092 1.70475 16.3449C1.83477 16.6907 2.15984 16.9551 2.60409 17.0975C7.13331 18.5215 11.9334 18.5215 16.4627 17.0975C16.8527 16.9755 17.1561 16.7008 17.297 16.3347C17.4379 15.9685 17.4053 15.5718 17.1886 15.2362L15.9426 13.2935C15.5308 12.6324 15.2166 11.5441 15.2166 10.8016V7.87234C15.2166 4.92271 12.6703 2.5325 9.52798 2.5325Z" fill="white"/>
<path d="M11.5428 2.80723C11.4669 2.80723 11.3911 2.79706 11.3152 2.77671C11.001 2.69535 10.6976 2.63432 10.4051 2.59363C9.48405 2.48175 8.59554 2.54278 7.76121 2.77671C7.45782 2.86825 7.13279 2.77671 6.92692 2.56312C6.72104 2.34953 6.65603 2.04439 6.77522 1.76977C7.21947 0.701807 8.30299 0 9.53823 0C10.7735 0 11.857 0.691636 12.3013 1.76977C12.4096 2.04439 12.3554 2.34953 12.1496 2.56312C11.987 2.72586 11.7595 2.80723 11.5428 2.80723Z" fill="white"/>
<path d="M9.52762 22.0002C8.45491 22.0002 7.4147 21.5934 6.65626 20.8814C5.89777 20.1694 5.46436 19.193 5.46436 18.186H7.08967C7.08967 18.7861 7.34969 19.3761 7.80478 19.8032C8.25987 20.2304 8.88833 20.4745 9.52762 20.4745C10.8712 20.4745 11.9656 19.4473 11.9656 18.186H13.5909C13.5909 20.2915 11.7706 22.0002 9.52762 22.0002Z" fill="white"/>
</svg>
