<svg width="29" height="35" viewBox="0 0 29 35" fill="none" xmlns="http://www.w3.org/2000/svg">
<path fill-rule="evenodd" clip-rule="evenodd" d="M4.48179 7.52279C3.67879 8.17628 3.04159 9.36588 3.04159 11.6875V26.8C3.04159 28.901 3.66415 30.1185 4.50202 30.8363C5.37269 31.5821 6.65454 31.9432 8.24992 31.9432H20.7499C22.3453 31.9432 23.6271 31.5821 24.4978 30.8363C25.3357 30.1185 25.9583 28.901 25.9583 26.8V11.6875C25.9583 9.36588 25.3211 8.17628 24.5181 7.52279C23.8306 6.96333 22.8717 6.66938 21.6597 6.57693C21.1672 8.5708 19.3543 10.0318 17.2343 10.0318H11.7655C10.5167 10.0318 9.38242 9.53052 8.55288 8.70761C7.97037 8.12977 7.54317 7.39787 7.34022 6.57692C6.12823 6.66936 5.16926 6.96331 4.48179 7.52279ZM3.17821 5.87405C4.58856 4.72628 6.44582 4.43066 8.24992 4.43066C8.82522 4.43066 9.29159 4.90382 9.29159 5.48748C9.29159 6.1487 9.55808 6.74867 10.0094 7.19635C10.4611 7.64445 11.0769 7.91816 11.7655 7.91816H17.2343C18.6187 7.91816 19.7083 6.80355 19.7083 5.48748C19.7083 4.90382 20.1746 4.43066 20.7499 4.43066C22.554 4.43066 24.4113 4.72628 25.8216 5.87405C27.2803 7.06118 28.0416 8.97158 28.0416 11.6875V26.8C28.0416 29.349 27.2657 31.2315 25.8419 32.4512C24.4508 33.6428 22.6077 34.0568 20.7499 34.0568H8.24992C6.39217 34.0568 4.54902 33.6428 3.15797 32.4512C1.73413 31.2315 0.958252 29.349 0.958252 26.8V11.6875C0.958252 8.97158 1.71949 7.06118 3.17821 5.87405Z" />
<path fill-rule="evenodd" clip-rule="evenodd" d="M11.7653 3.05675C10.3809 3.05675 9.29134 4.17136 9.29134 5.48743C9.29134 6.14865 9.55783 6.74862 10.0091 7.1963C10.4608 7.6444 11.0767 7.91812 11.7653 7.91812H17.234C18.6184 7.91812 19.708 6.80351 19.708 5.48743C19.708 4.82625 19.4415 4.22627 18.9902 3.77857C18.5385 3.33046 17.9227 3.05675 17.234 3.05675H11.7653ZM7.20801 5.48743C7.20801 2.95951 9.27469 0.943115 11.7653 0.943115H17.234C18.4829 0.943115 19.6171 1.44441 20.4467 2.2673C21.2766 3.09059 21.7913 4.22662 21.7913 5.48743C21.7913 8.01536 19.7247 10.0318 17.234 10.0318H11.7653C10.5164 10.0318 9.38217 9.53047 8.55263 8.70757C7.72267 7.88425 7.20801 6.74821 7.20801 5.48743Z" />
<path fill-rule="evenodd" clip-rule="evenodd" d="M7.20801 19.05C7.20801 18.4663 7.67438 17.9932 8.24967 17.9932H14.4997C15.075 17.9932 15.5413 18.4663 15.5413 19.05C15.5413 19.6336 15.075 20.1068 14.4997 20.1068H8.24967C7.67438 20.1068 7.20801 19.6336 7.20801 19.05Z" />
<path fill-rule="evenodd" clip-rule="evenodd" d="M7.20801 25.2499C7.20801 24.6663 7.67438 24.1931 8.24967 24.1931H20.7497C21.325 24.1931 21.7913 24.6663 21.7913 25.2499C21.7913 25.8336 21.325 26.3068 20.7497 26.3068H8.24967C7.67438 26.3068 7.20801 25.8336 7.20801 25.2499Z" />
</svg>
