<svg width="26" height="24" fill="none" xmlns="http://www.w3.org/2000/svg">
<path d="M19.0465 24H6.95349C1.62047 24 0 22.3508 0 16.9231V7.07692C0 1.64923 1.62047 0 6.95349 0H19.0465C24.3795 0 26 1.64923 26 7.07692V16.9231C26 22.3508 24.3795 24 19.0465 24ZM6.95349 1.84615C2.62419 1.84615 1.81395 2.68308 1.81395 7.07692V16.9231C1.81395 21.3169 2.62419 22.1538 6.95349 22.1538H19.0465C23.3758 22.1538 24.186 21.3169 24.186 16.9231V7.07692C24.186 2.68308 23.3758 1.84615 19.0465 1.84615H6.95349Z" />
<path d="M8.76763 12.0491C7.06251 12.0491 5.67181 10.6337 5.67181 8.89833C5.67181 7.16294 7.06251 5.74756 8.76763 5.74756C10.4727 5.74756 11.8634 7.16294 11.8634 8.89833C11.8634 10.6337 10.4727 12.0491 8.76763 12.0491ZM8.76763 7.59371C8.06623 7.59371 7.48577 8.18448 7.48577 8.89833C7.48577 9.61215 8.06623 10.2029 8.76763 10.2029C9.46902 10.2029 10.0495 9.61215 10.0495 8.89833C10.0495 8.18448 9.46902 7.59371 8.76763 7.59371Z" />
<path d="M12.9998 18.2517C12.5402 18.2517 12.1412 17.8948 12.0928 17.4148C11.9598 16.0856 10.9077 15.0148 9.58956 14.8917C9.03328 14.8425 8.47701 14.8425 7.92073 14.8917C6.60259 15.0148 5.55049 16.0733 5.41747 17.4148C5.3691 17.9194 4.92166 18.3009 4.42584 18.2394C3.93003 18.1902 3.56724 17.7348 3.61561 17.2302C3.83328 15.0148 5.56259 13.2548 7.75142 13.0579C8.41654 12.9963 9.09375 12.9963 9.75887 13.0579C11.9356 13.2671 13.677 15.0271 13.8947 17.2302C13.943 17.7348 13.5802 18.1902 13.0844 18.2394C13.0602 18.2517 13.024 18.2517 12.9998 18.2517Z" />
<path d="M20.9535 10.8462H14.907C14.4112 10.8462 14 10.4277 14 9.92308C14 9.41846 14.4112 9 14.907 9H20.9535C21.4493 9 21.8605 9.41846 21.8605 9.92308C21.8605 10.4277 21.4493 10.8462 20.9535 10.8462Z" />
<path d="M17.077 12.9535L17.077 6.90698C17.077 6.41116 17.4954 6 18 6C18.5047 6 18.9231 6.41116 18.9231 6.90698L18.9231 12.9535C18.9231 13.4493 18.5047 13.8605 18 13.8605C17.4954 13.8605 17.077 13.4493 17.077 12.9535Z" />
</svg>
