<svg width="26" height="24" viewBox="0 0 26 24" fill="none" xmlns="http://www.w3.org/2000/svg">
<path d="M12.9879 16.4119C10.487 16.4119 8.45728 14.4337 8.45728 11.9963C8.45728 9.5588 10.487 7.58057 12.9879 7.58057C15.4889 7.58057 17.5186 9.5588 17.5186 11.9963C17.5186 14.4337 15.4889 16.4119 12.9879 16.4119ZM12.9879 9.34684C11.4898 9.34684 10.2695 10.5361 10.2695 11.9963C10.2695 13.4564 11.4898 14.6457 12.9879 14.6457C14.4861 14.6457 15.7063 13.4564 15.7063 11.9963C15.7063 10.5361 14.4861 9.34684 12.9879 9.34684Z"/>
<path d="M16.8662 23.9952C16.6125 23.9952 16.3587 23.9599 16.105 23.901C15.3559 23.7008 14.7277 23.2416 14.329 22.594L14.184 22.3584C13.4712 21.1574 12.4926 21.1574 11.7797 22.3584L11.6468 22.5822C11.2481 23.2416 10.6199 23.7126 9.87082 23.901C9.10967 24.1012 8.32435 23.9952 7.65985 23.6066L5.58178 22.4409C4.8448 22.0287 4.3132 21.3576 4.08364 20.5451C3.86617 19.7326 3.97491 18.8965 4.39777 18.1783C4.74814 17.5777 4.8448 17.0361 4.63941 16.6946C4.43401 16.3531 3.9145 16.1529 3.20167 16.1529C1.43773 16.1529 0 14.7517 0 13.0325V10.9601C0 9.2409 1.43773 7.83966 3.20167 7.83966C3.9145 7.83966 4.43401 7.63948 4.63941 7.298C4.8448 6.95652 4.76022 6.41486 4.39777 5.81433C3.97491 5.09604 3.86617 4.24823 4.08364 3.44752C4.30112 2.63503 4.83271 1.96385 5.58178 1.55172L7.67193 0.385974C9.03718 -0.402962 10.8374 0.0562693 11.6589 1.41041L11.8039 1.64592C12.5167 2.84699 13.4954 2.84699 14.2082 1.64592L14.3411 1.42219C15.1626 0.0562693 16.9628 -0.402962 18.3401 0.397749L20.4182 1.56349C21.1552 1.97562 21.6868 2.64681 21.9164 3.45929C22.1338 4.27178 22.0251 5.10782 21.6022 5.8261C21.2519 6.42664 21.1552 6.9683 21.3606 7.30978C21.566 7.65126 22.0855 7.85143 22.7983 7.85143C24.5623 7.85143 26 9.25268 26 10.9719V13.0443C26 14.7635 24.5623 16.1647 22.7983 16.1647C22.0855 16.1647 21.566 16.3649 21.3606 16.7064C21.1552 17.0478 21.2398 17.5895 21.6022 18.19C22.0251 18.9083 22.1459 19.7561 21.9164 20.5568C21.6989 21.3693 21.1673 22.0405 20.4182 22.4527L18.3281 23.6184C17.869 23.8657 17.3736 23.9952 16.8662 23.9952ZM12.9879 19.6384C14.0632 19.6384 15.066 20.2978 15.7546 21.4635L15.8875 21.6873C16.0325 21.9345 16.2742 22.1112 16.5641 22.1818C16.8541 22.2525 17.1441 22.2171 17.3857 22.0758L19.4758 20.8983C19.79 20.7217 20.0316 20.4273 20.1283 20.0741C20.2249 19.7208 20.1766 19.3558 19.9954 19.0496C19.3067 17.8957 19.2221 16.7064 19.7537 15.7997C20.2853 14.893 21.3848 14.3749 22.7621 14.3749C23.5353 14.3749 24.1515 13.7743 24.1515 13.0207V10.9483C24.1515 10.2065 23.5353 9.59416 22.7621 9.59416C21.3848 9.59416 20.2853 9.07605 19.7537 8.16936C19.2221 7.26268 19.3067 6.07338 19.9954 4.91942C20.1766 4.61326 20.2249 4.24823 20.1283 3.89498C20.0316 3.54172 19.802 3.25912 19.4879 3.07071L17.3978 1.90497C16.8783 1.59882 16.1896 1.77544 15.8755 2.29355L15.7426 2.51728C15.0539 3.68302 14.0511 4.34243 12.9758 4.34243C11.9006 4.34243 10.8978 3.68302 10.2091 2.51728L10.0762 2.28178C9.77416 1.78722 9.09758 1.61059 8.57807 1.90497L6.48792 3.08249C6.17379 3.25912 5.93216 3.5535 5.8355 3.90675C5.73885 4.26001 5.78717 4.62504 5.9684 4.93119C6.65706 6.08516 6.74164 7.27445 6.21004 8.18114C5.67844 9.08783 4.579 9.60594 3.20167 9.60594C2.42844 9.60594 1.81227 10.2065 1.81227 10.9601V13.0325C1.81227 13.7743 2.42844 14.3867 3.20167 14.3867C4.579 14.3867 5.67844 14.9048 6.21004 15.8115C6.74164 16.7181 6.65706 17.9074 5.9684 19.0614C5.78717 19.3676 5.73885 19.7326 5.8355 20.0858C5.93216 20.4391 6.16171 20.7217 6.47584 20.9101L8.56598 22.0758C8.8197 22.2289 9.12175 22.2642 9.39963 22.1936C9.68959 22.1229 9.93123 21.9345 10.0883 21.6873L10.2212 21.4635C10.9099 20.3096 11.9126 19.6384 12.9879 19.6384Z"/>
</svg>
